# xmcd
#
# Track frame offsets:
#	150
#	3963
#	20979
#	41149
#	59801
#	77468
#	97452
#	113982
#	130422
#	150845
#	167730
#	184746
#	202616
#	226589
#	254941
#	270100
#	285478
#	300907
#	318499
#
# Disc length: 4454 seconds
#
# Revision: 0
# Processed by: cddbd v1.5.1PL0 Copyright (c) Steve Scherf et al.
# Submitted via: dBpowerAMP V4.0
#
DISCID=fb116413
DTITLE=Novaspace - Supernova and Special
DYEAR=2003
DGENRE=Blues
TTITLE0=Intro
TTITLE1=Time After Time
TTITLE2=Dancing With Tears In My Eyes
TTITLE3=Paradise
TTITLE4=Guardian Angel
TTITLE5=Close To You
TTITLE6=To France
TTITLE7=One More Try
TTITLE8=Tears In May
TTITLE9=Nightflight
TTITLE10=To Trance
TTITLE11=Never-Ending Love
TTITLE12=Guardian Angel (extended mix)
TTITLE13=To Franc (nova mix)
TTITLE14=Nova's Theme
TTITLE15=Beds Are Burning
TTITLE16=Nova Space - Time After Time (techno remix)
TTITLE17=Heaven
TTITLE18=So Lonley
EXTD=
EXTT0=
EXTT1=
EXTT2=
EXTT3=
EXTT4=
EXTT5=
EXTT6=
EXTT7=
EXTT8=
EXTT9=
EXTT10=
EXTT11=
EXTT12=
EXTT13=
EXTT14=
EXTT15=
EXTT16=
EXTT17=
EXTT18=
PLAYORDER=
